<svg width="200" height="105" viewBox="0 0 200 105" fill="none" xmlns="http://www.w3.org/2000/svg">
<g clip-path="url(#clip0_161_2463)">
<path d="M15.12 39.76V56.08H34.32V63.52H15.12V80.56H36.72V88H6V32.32H36.72V39.76H15.12ZM57.0731 28.8V88H47.9531V28.8H57.0731ZM88.1669 88.72C84.0069 88.72 80.2469 87.7867 76.8869 85.92C73.5269 84 70.8869 81.3333 68.9669 77.92C67.0469 74.4533 66.0869 70.4533 66.0869 65.92C66.0869 61.44 67.0735 57.4667 69.0469 54C71.0202 50.5333 73.7135 47.8667 77.1269 46C80.5402 44.1333 84.3535 43.2 88.5669 43.2C92.7802 43.2 96.5935 44.1333 100.007 46C103.42 47.8667 106.114 50.5333 108.087 54C110.06 57.4667 111.047 61.44 111.047 65.92C111.047 70.4 110.034 74.3733 108.007 77.84C105.98 81.3067 103.207 84 99.6869 85.92C96.2202 87.7867 92.3802 88.72 88.1669 88.72ZM88.1669 80.8C90.5135 80.8 92.7002 80.24 94.7269 79.12C96.8069 78 98.4869 76.32 99.7669 74.08C101.047 71.84 101.687 69.12 101.687 65.92C101.687 62.72 101.074 60.0267 99.8469 57.84C98.6202 55.6 96.9935 53.92 94.9669 52.8C92.9402 51.68 90.7535 51.12 88.4069 51.12C86.0602 51.12 83.8735 51.68 81.8469 52.8C79.8735 53.92 78.3002 55.6 77.1269 57.84C75.9535 60.0267 75.3669 62.72 75.3669 65.92C75.3669 70.6667 76.5669 74.3467 78.9669 76.96C81.4202 79.52 84.4869 80.8 88.1669 80.8ZM124.703 38.08C123.049 38.08 121.663 37.52 120.543 36.4C119.423 35.28 118.863 33.8933 118.863 32.24C118.863 30.5867 119.423 29.2 120.543 28.08C121.663 26.96 123.049 26.4 124.703 26.4C126.303 26.4 127.663 26.96 128.783 28.08C129.903 29.2 130.463 30.5867 130.463 32.24C130.463 33.8933 129.903 35.28 128.783 36.4C127.663 37.52 126.303 38.08 124.703 38.08ZM129.183 43.92V88H120.063V43.92H129.183Z" fill="white"/>
<g clip-path="url(#clip1_161_2463)">
<path d="M175.304 14.91V21.03H182.504V23.82H175.304V30.21H183.404V33H171.884V12.12H183.404V14.91H175.304Z" fill="white"/>
</g>
<rect x="155.5" y="0.5" width="44" height="44" rx="22" stroke="white"/>
</g>
<defs>
<clipPath id="clip0_161_2463">
<rect width="200" height="105" fill="white"/>
</clipPath>
<clipPath id="clip1_161_2463">
<rect x="155" width="45" height="45" rx="22.5" fill="white"/>
</clipPath>
</defs>
</svg>
