<svg width="40" height="40" viewBox="0 0 40 40" fill="none" xmlns="http://www.w3.org/2000/svg">
<path d="M20 20C24.6023 20 28.3333 16.269 28.3333 11.6667C28.3333 7.0643 24.6023 3.33334 20 3.33334C15.3976 3.33334 11.6666 7.0643 11.6666 11.6667C11.6666 16.269 15.3976 20 20 20Z" stroke="#909090" stroke-width="2" stroke-linecap="round"/>
<path d="M28.3334 23.3333H28.92C30.1385 23.3337 31.3149 23.7789 32.2282 24.5855C33.1415 25.392 33.7289 26.5043 33.88 27.7133L34.5317 32.92C34.5903 33.3891 34.5485 33.8652 34.409 34.3169C34.2695 34.7685 34.0356 35.1853 33.7227 35.5397C33.4099 35.894 33.0252 36.1777 32.5943 36.372C32.1634 36.5663 31.6961 36.6668 31.2234 36.6667H8.77669C8.30399 36.6668 7.83668 36.5663 7.40576 36.372C6.97485 36.1777 6.59019 35.894 6.27731 35.5397C5.96444 35.1853 5.7305 34.7685 5.59103 34.3169C5.45156 33.8652 5.40974 33.3891 5.46835 32.92L6.11835 27.7133C6.26951 26.5037 6.85738 25.391 7.77141 24.5844C8.68543 23.7778 9.86265 23.3329 11.0817 23.3333H11.6667" stroke="#909090" stroke-width="2" stroke-linecap="round" stroke-linejoin="round"/>
</svg>
