<svg width="50" height="50" viewBox="0 0 50 50" fill="none" xmlns="http://www.w3.org/2000/svg">
<path d="M25.002 4.16666C13.4916 4.16666 4.1687 13.4896 4.1687 25C4.1662 29.3732 5.54078 33.6362 8.09748 37.1843C10.6542 40.7323 14.2631 43.3852 18.4125 44.7667C19.4541 44.9479 19.8458 44.3229 19.8458 43.775C19.8458 43.2812 19.8187 41.6417 19.8187 39.8958C14.5854 40.8604 13.2312 38.6208 12.8145 37.4479C12.5791 36.8479 11.5645 35 10.6791 34.5042C9.94995 34.1146 8.90829 33.15 10.652 33.125C12.2937 33.0979 13.4645 34.6354 13.8562 35.2604C15.7312 38.4104 18.725 37.525 19.9229 36.9792C20.1062 35.625 20.652 34.7146 21.252 34.1937C16.6166 33.6729 11.7729 31.875 11.7729 23.9062C11.7729 21.6396 12.5791 19.7667 13.9083 18.3083C13.7 17.7875 12.9708 15.6521 14.1166 12.7875C14.1166 12.7875 15.8604 12.2396 19.8458 14.9208C21.5418 14.4508 23.2941 14.2146 25.0541 14.2187C26.825 14.2187 28.5958 14.4521 30.2625 14.9208C34.2479 12.2125 35.9916 12.7875 35.9916 12.7875C37.1375 15.6521 36.4083 17.7875 36.2 18.3083C37.527 19.7667 38.3354 21.6146 38.3354 23.9062C38.3354 31.9021 33.4666 33.6729 28.8312 34.1937C29.5854 34.8437 30.2375 36.0937 30.2375 38.0479C30.2375 40.8333 30.2104 43.0729 30.2104 43.7771C30.2104 44.3229 30.602 44.9729 31.6437 44.7646C35.7788 43.368 39.3719 40.7099 41.9173 37.1644C44.4627 33.6189 45.8323 29.3646 45.8333 25C45.8333 13.4896 36.5104 4.16666 25 4.16666" fill="#909090"/>
</svg>
