<svg width="40" height="40" viewBox="0 0 40 40" fill="none" xmlns="http://www.w3.org/2000/svg">
<path d="M18.75 30C18.75 30.3315 18.8817 30.6495 19.1161 30.8839C19.3505 31.1183 19.6685 31.25 20 31.25C20.3315 31.25 20.6495 31.1183 20.8839 30.8839C21.1183 30.6495 21.25 30.3315 21.25 30V25C21.25 24.6685 21.1183 24.3505 20.8839 24.1161C20.6495 23.8817 20.3315 23.75 20 23.75C19.6685 23.75 19.3505 23.8817 19.1161 24.1161C18.8817 24.3505 18.75 24.6685 18.75 25V30Z" fill="#C0C0C0"/>
<path fill-rule="evenodd" clip-rule="evenodd" d="M20 2.08333C18.82 2.08333 17.7484 2.42166 16.5834 2.98666C15.46 3.53333 14.16 4.33999 12.5384 5.34666L9.09337 7.48499C7.56004 8.43833 6.32837 9.20166 5.38171 9.92666C4.40004 10.6767 3.64671 11.4433 3.10171 12.4383C2.55837 13.43 2.31504 14.4867 2.19671 15.735C2.08337 16.9433 2.08337 18.4233 2.08337 20.2783V22.9667C2.08337 26.14 2.08337 28.645 2.33837 30.6033C2.59837 32.6117 3.14837 34.2333 4.38837 35.515C5.63337 36.8033 7.21671 37.38 9.18004 37.6517C11.08 37.9167 13.51 37.9167 16.57 37.9167H23.43C26.49 37.9167 28.92 37.9167 30.82 37.6517C32.7817 37.38 34.3667 36.8033 35.6134 35.515C36.8517 34.2333 37.4017 32.6117 37.6634 30.6033C37.9167 28.645 37.9167 26.14 37.9167 22.9667V20.2783C37.9167 18.4233 37.9167 16.945 37.8034 15.735C37.6867 14.485 37.4417 13.43 36.8984 12.4383C36.3534 11.4433 35.5984 10.6783 34.6184 9.92666C33.6717 9.19999 32.4417 8.43833 30.9067 7.48499L27.4617 5.34666C25.84 4.33999 24.54 3.53333 23.415 2.98666C22.2534 2.41999 21.1817 2.08333 20 2.08333ZM13.8 7.50666C15.4917 6.45666 16.6834 5.71999 17.6784 5.23499C18.6467 4.76333 19.3334 4.58333 20 4.58333C20.6667 4.58333 21.3534 4.76333 22.3217 5.23499C23.3184 5.71833 24.5084 6.45666 26.2 7.50666L29.5334 9.57499C31.135 10.57 32.26 11.2683 33.1 11.9117C33.915 12.5367 34.3834 13.0517 34.705 13.6383C35.0267 14.2267 35.215 14.915 35.3134 15.9683C35.415 17.0483 35.4167 18.41 35.4167 20.34V22.875C35.4167 26.1583 35.4134 28.5017 35.1834 30.28C34.9567 32.0267 34.5284 33.04 33.8167 33.7783C33.1084 34.51 32.145 34.945 30.4767 35.1767C28.7667 35.4133 26.5117 35.4167 23.3334 35.4167H16.6667C13.4867 35.4167 11.2334 35.4133 9.52337 35.1767C7.85504 34.9433 6.89171 34.51 6.18504 33.7767C5.47171 33.04 5.04337 32.0267 4.81837 30.28C4.58504 28.5017 4.58337 26.16 4.58337 22.875V20.34C4.58337 18.41 4.58337 17.0483 4.68671 15.9683C4.78504 14.915 4.97337 14.2267 5.29504 13.6383C5.61671 13.0517 6.08504 12.5367 6.90171 11.9117C7.74004 11.2683 8.86504 10.57 10.4667 9.57499L13.8 7.50666Z" fill="#C0C0C0"/>
</svg>
