<svg width="50" height="50" viewBox="0 0 50 50" fill="none" xmlns="http://www.w3.org/2000/svg">
<path d="M25.0022 18.75C23.3446 18.75 21.7548 19.4085 20.5827 20.5806C19.4106 21.7527 18.7522 23.3424 18.7522 25C18.7522 26.6576 19.4106 28.2473 20.5827 29.4194C21.7548 30.5915 23.3446 31.25 25.0022 31.25C26.6598 31.25 28.2495 30.5915 29.4216 29.4194C30.5937 28.2473 31.2522 26.6576 31.2522 25C31.2522 23.3424 30.5937 21.7527 29.4216 20.5806C28.2495 19.4085 26.6598 18.75 25.0022 18.75ZM25.0022 14.5833C27.7648 14.5833 30.4144 15.6808 32.3679 17.6343C34.3214 19.5878 35.4188 22.2373 35.4188 25C35.4188 27.7627 34.3214 30.4122 32.3679 32.3657C30.4144 34.3192 27.7648 35.4167 25.0022 35.4167C22.2395 35.4167 19.59 34.3192 17.6365 32.3657C15.683 30.4122 14.5855 27.7627 14.5855 25C14.5855 22.2373 15.683 19.5878 17.6365 17.6343C19.59 15.6808 22.2395 14.5833 25.0022 14.5833ZM38.5438 14.0625C38.5438 14.7532 38.2695 15.4155 37.7811 15.9039C37.2927 16.3923 36.6303 16.6667 35.9397 16.6667C35.249 16.6667 34.5866 16.3923 34.0982 15.9039C33.6099 15.4155 33.3355 14.7532 33.3355 14.0625C33.3355 13.3718 33.6099 12.7094 34.0982 12.2211C34.5866 11.7327 35.249 11.4583 35.9397 11.4583C36.6303 11.4583 37.2927 11.7327 37.7811 12.2211C38.2695 12.7094 38.5438 13.3718 38.5438 14.0625ZM25.0022 8.33332C19.848 8.33332 19.0063 8.34791 16.6084 8.45416C14.9751 8.53124 13.8792 8.74999 12.8626 9.14582C12.0118 9.45819 11.2426 9.95887 10.6126 10.6104C9.96051 11.2404 9.45915 12.0095 9.14591 12.8604C8.75008 13.8812 8.53133 14.975 8.45633 16.6062C8.348 18.9062 8.33341 19.7104 8.33341 25C8.33341 30.1562 8.348 30.9958 8.45425 33.3937C8.53133 35.025 8.75008 36.1229 9.14383 37.1375C9.498 38.0437 9.91466 38.6958 10.6063 39.3875C11.3084 40.0875 11.9605 40.5062 12.8563 40.8521C13.8855 41.25 14.9813 41.4708 16.6063 41.5458C18.9063 41.6542 19.7105 41.6667 25.0001 41.6667C30.1563 41.6667 30.9959 41.6521 33.3938 41.5458C35.023 41.4687 36.1188 41.25 37.1376 40.8562C37.9876 40.5423 38.7565 40.0419 39.3876 39.3917C40.0897 38.6917 40.5084 38.0396 40.8542 37.1417C41.2501 36.1167 41.4709 35.0208 41.5459 33.3917C41.6542 31.0937 41.6667 30.2875 41.6667 25C41.6667 19.8458 41.6522 19.0042 41.5459 16.6062C41.4688 14.9771 41.248 13.8771 40.8542 12.8604C40.5402 12.0104 40.0398 11.2416 39.3897 10.6104C38.7599 9.958 37.9907 9.45659 37.1397 9.14374C36.1188 8.74791 35.023 8.52916 33.3938 8.45416C31.0959 8.34582 30.2917 8.33332 25.0001 8.33332M25.0001 4.16666C30.6605 4.16666 31.3667 4.18749 33.5897 4.29166C35.8063 4.39582 37.3188 4.74374 38.6459 5.26041C40.0209 5.78957 41.1792 6.50624 42.3376 7.66249C43.3969 8.70394 44.2167 9.96372 44.7397 11.3542C45.2542 12.6812 45.6042 14.1937 45.7084 16.4125C45.8063 18.6333 45.8334 19.3396 45.8334 25C45.8334 30.6604 45.8126 31.3667 45.7084 33.5875C45.6042 35.8062 45.2542 37.3167 44.7397 38.6458C44.2181 40.037 43.3982 41.2971 42.3376 42.3375C41.2958 43.3965 40.0361 44.2161 38.6459 44.7396C37.3188 45.2542 35.8063 45.6042 33.5897 45.7083C31.3667 45.8062 30.6605 45.8333 25.0001 45.8333C19.3397 45.8333 18.6334 45.8125 16.4105 45.7083C14.1938 45.6042 12.6834 45.2542 11.3542 44.7396C9.96326 44.2176 8.70326 43.3978 7.66258 42.3375C6.60306 41.2962 5.78333 40.0364 5.2605 38.6458C4.74383 37.3187 4.39591 35.8062 4.29175 33.5875C4.19175 31.3667 4.16675 30.6604 4.16675 25C4.16675 19.3396 4.18758 18.6333 4.29175 16.4125C4.39591 14.1937 4.74383 12.6833 5.2605 11.3542C5.78182 9.96286 6.60176 8.70274 7.66258 7.66249C8.70356 6.60255 9.96347 5.78276 11.3542 5.26041C12.6813 4.74374 14.1917 4.39582 16.4105 4.29166C18.6355 4.19374 19.3417 4.16666 25.0022 4.16666" fill="#909090"/>
</svg>
