<svg width="30" height="30" viewBox="0 0 30 30" fill="none" xmlns="http://www.w3.org/2000/svg">
<path d="M28.125 16.875H18.75V22.9388C18.7523 23.826 19.0054 24.6946 19.4799 25.4443C19.9545 26.1941 20.6312 26.7944 21.4322 27.1763L23.4375 28.125L25.4428 27.1753C26.2438 26.7935 26.9205 26.1931 27.3951 25.4434C27.8696 24.6937 28.1227 23.8251 28.125 22.9378V16.875ZM23.4375 26.0494L22.2347 25.4803C21.7541 25.2515 21.348 24.8914 21.0632 24.4417C20.7784 23.9921 20.6265 23.471 20.625 22.9388V18.75H26.25V22.9388C26.2483 23.4709 26.0964 23.9917 25.8116 24.4412C25.5268 24.8907 25.1207 25.2506 24.6403 25.4794L23.4375 26.0494ZM15.9375 16.875H4.6875C4.19022 16.875 3.71331 17.0725 3.36167 17.4242C3.01004 17.7758 2.8125 18.2527 2.8125 18.75V23.4375C2.8125 23.9348 3.01004 24.4117 3.36167 24.7633C3.71331 25.115 4.19022 25.3125 4.6875 25.3125H15.9375V23.4375H4.6875V18.75H15.9375V16.875ZM25.3125 3.75H20.625C20.1277 3.75 19.6508 3.94754 19.2992 4.29917C18.9475 4.65081 18.75 5.12772 18.75 5.625V14.0625H20.625V5.625H25.3125V14.0625H27.1875V5.625C27.1875 5.12772 26.99 4.65081 26.6383 4.29917C26.2867 3.94754 25.8098 3.75 25.3125 3.75ZM14.0625 3.75H4.6875C4.19022 3.75 3.71331 3.94754 3.36167 4.29917C3.01004 4.65081 2.8125 5.12772 2.8125 5.625V12.1875C2.8125 12.6848 3.01004 13.1617 3.36167 13.5133C3.71331 13.865 4.19022 14.0625 4.6875 14.0625H14.0625C14.5598 14.0625 15.0367 13.865 15.3883 13.5133C15.74 13.1617 15.9375 12.6848 15.9375 12.1875V5.625C15.9375 5.12772 15.74 4.65081 15.3883 4.29917C15.0367 3.94754 14.5598 3.75 14.0625 3.75ZM4.6875 12.1875V5.625H14.0625V12.1875H4.6875Z" fill="#909090"/>
</svg>
