<svg width="40" height="40" viewBox="0 0 40 40" fill="none" xmlns="http://www.w3.org/2000/svg">
<path d="M16.875 17.5C16.875 17.3342 16.9408 17.1753 17.0581 17.0581C17.1753 16.9408 17.3342 16.875 17.5 16.875H22.5C22.6658 16.875 22.8247 16.9408 22.9419 17.0581C23.0592 17.1753 23.125 17.3342 23.125 17.5C23.125 17.6658 23.0592 17.8247 22.9419 17.9419C22.8247 18.0592 22.6658 18.125 22.5 18.125H17.5C17.3342 18.125 17.1753 18.0592 17.0581 17.9419C16.9408 17.8247 16.875 17.6658 16.875 17.5ZM35.625 11.25V31.25C35.625 31.7473 35.4275 32.2242 35.0758 32.5758C34.7242 32.9275 34.2473 33.125 33.75 33.125H6.25C5.75272 33.125 5.27581 32.9275 4.92417 32.5758C4.57254 32.2242 4.375 31.7473 4.375 31.25V11.25C4.375 10.7527 4.57254 10.2758 4.92417 9.92417C5.27581 9.57254 5.75272 9.375 6.25 9.375H13.125V7.5C13.125 6.6712 13.4542 5.87634 14.0403 5.29029C14.6263 4.70424 15.4212 4.375 16.25 4.375H23.75C24.5788 4.375 25.3737 4.70424 25.9597 5.29029C26.5458 5.87634 26.875 6.6712 26.875 7.5V9.375H33.75C34.2473 9.375 34.7242 9.57254 35.0758 9.92417C35.4275 10.2758 35.625 10.7527 35.625 11.25ZM14.375 9.375H25.625V7.5C25.625 7.00272 25.4275 6.52581 25.0758 6.17417C24.7242 5.82254 24.2473 5.625 23.75 5.625H16.25C15.7527 5.625 15.2758 5.82254 14.9242 6.17417C14.5725 6.52581 14.375 7.00272 14.375 7.5V9.375ZM5.625 11.25V18.125C10.0162 20.586 14.9662 21.8773 20 21.875C25.0338 21.8773 29.9838 20.586 34.375 18.125V11.25C34.375 11.0842 34.3092 10.9253 34.1919 10.8081C34.0747 10.6908 33.9158 10.625 33.75 10.625H6.25C6.08424 10.625 5.92527 10.6908 5.80806 10.8081C5.69085 10.9253 5.625 11.0842 5.625 11.25ZM34.375 31.25V19.5469C29.9482 21.8976 25.0122 23.1262 20 23.125C14.9877 23.1266 10.0517 21.898 5.625 19.5469V31.25C5.625 31.4158 5.69085 31.5747 5.80806 31.6919C5.92527 31.8092 6.08424 31.875 6.25 31.875H33.75C33.9158 31.875 34.0747 31.8092 34.1919 31.6919C34.3092 31.5747 34.375 31.4158 34.375 31.25Z" fill="#909090"/>
</svg>
