<svg width="40" height="40" viewBox="0 0 40 40" fill="none" xmlns="http://www.w3.org/2000/svg">
<path d="M6.66663 20C6.66663 16.4638 8.07138 13.0724 10.5719 10.5719C13.0724 8.07142 16.4637 6.66666 20 6.66666C23.5362 6.66666 26.9276 8.07142 29.428 10.5719C31.9285 13.0724 33.3333 16.4638 33.3333 20V28.4833C33.3333 29.8967 33.3333 30.6 33.1233 31.165C32.9563 31.6127 32.695 32.0193 32.3571 32.3572C32.0193 32.6951 31.6127 32.9563 31.165 33.1233C30.6 33.3333 29.895 33.3333 28.4833 33.3333H20C16.4637 33.3333 13.0724 31.9286 10.5719 29.4281C8.07138 26.9276 6.66663 23.5362 6.66663 20Z" stroke="#909090" stroke-width="1.66667" stroke-linecap="round"/>
<path d="M15 18.3333H25M20 25H25" stroke="#909090" stroke-width="1.66667" stroke-linecap="round" stroke-linejoin="round"/>
</svg>
